<?xml version="1.0" encoding="UTF-8"?>
<svg width="16px" height="16px" viewBox="0 0 16 16" version="1.1" xmlns="http://www.w3.org/2000/svg" xmlns:xlink="http://www.w3.org/1999/xlink">
    <title>形状结合</title>
    <g id="页面-1" stroke="none" stroke-width="1" fill="none" fill-rule="evenodd">
        <path d="M13,0 C14.6568542,-3.04359188e-16 16,1.34314575 16,3 L16,13 C16,14.6568542 14.6568542,16 13,16 L3,16 C1.34314575,16 2.02906125e-16,14.6568542 0,13 L0,3 C-2.02906125e-16,1.34314575 1.34314575,3.04359188e-16 3,0 L13,0 Z M8.495,9.342 L7.571,9.342 L7.571,10.376 L5.393,10.376 L5.393,11.168 L7.571,11.168 L7.571,12.158 L3.501,12.158 L3.501,12.972 L12.543,12.972 L12.543,12.158 L8.495,12.158 L8.495,11.168 L10.618,11.168 L10.618,10.376 L8.495,10.376 L8.495,9.342 Z M5.932,3.028 L5.008,3.028 L5.008,3.886 L3.435,3.886 L3.435,4.612 L5.008,4.612 L5.008,8.121 L3.072,8.121 L3.072,8.891 L5.679,8.891 C5.35633333,9.27233333 4.95666667,9.62983333 4.48,9.9635 C4.09866667,10.2304333 3.67274667,10.47742 3.20224,10.70446 L2.841,10.871 L3.314,11.707 C4.09133333,11.311 4.76783333,10.8746667 5.3435,10.398 C5.83692857,9.98942857 6.2455,9.562 6.56921429,9.11571429 L6.724,8.891 L9.309,8.891 C9.73433333,9.49966667 10.1926667,9.99466667 10.684,10.376 C11.1491429,10.7468571 11.7139592,11.0988571 12.378449,11.432 L12.719,11.597 L13.159,10.783 C12.4036667,10.4676667 11.784,10.134 11.3,9.782 C11.047,9.595 10.806375,9.3811875 10.578125,9.1405625 L10.354,8.891 L13.005,8.891 L13.005,8.121 L11.047,8.121 L11.047,4.612 L12.631,4.612 L12.631,3.886 L11.047,3.886 L11.047,3.028 L10.123,3.028 L10.123,3.886 L5.932,3.886 L5.932,3.028 Z M10.123,7.395 L10.123,8.121 L5.932,8.121 L5.932,7.395 L10.123,7.395 Z M10.123,6.02 L10.123,6.702 L5.932,6.702 L5.932,6.02 L10.123,6.02 Z M10.123,4.612 L10.123,5.305 L5.932,5.305 L5.932,4.612 L10.123,4.612 Z" id="形状结合" fill="#999BFF"></path>
    </g>
</svg>