<?xml version="1.0" encoding="UTF-8"?>
<svg width="20px" height="20px" viewBox="0 0 20 20" version="1.1" xmlns="http://www.w3.org/2000/svg" xmlns:xlink="http://www.w3.org/1999/xlink">
    <title>item_tag_you</title>
    <defs>
        <linearGradient x1="0.150752568%" y1="50%" x2="100%" y2="50%" id="linearGradient-1">
            <stop stop-color="#FF73B2" offset="0%"></stop>
            <stop stop-color="#FF419E" offset="100%"></stop>
        </linearGradient>
    </defs>
    <g id="商品列表" stroke="none" stroke-width="1" fill="none" fill-rule="evenodd">
        <g id="1.3-标签" transform="translate(-1326.000000, -80.000000)">
            <g id="item_tag_you" transform="translate(1326.000000, 80.000000)">
                <path d="M8,0 L20,0 L20,0 L20,12 C20,16.418278 16.418278,20 12,20 L0,20 L0,20 L0,8 C-5.41083001e-16,3.581722 3.581722,8.11624501e-16 8,0 Z" id="矩形" fill="url(#linearGradient-1)"></path>
                <path d="M7.048,15.524 L7.048,7.364 C7.24,6.932 7.424,6.486 7.6,6.026 C7.776,5.566 7.948,5.08 8.116,4.568 L8.116,4.568 L7.06,4.268 C6.908,4.772 6.73,5.282 6.526,5.798 C6.322,6.314 6.096,6.828 5.848,7.34 C5.608,7.852 5.362,8.332 5.11,8.78 C4.858,9.228 4.604,9.64 4.348,10.016 L4.348,10.016 L5.176,10.712 C5.328,10.496 5.474,10.278 5.614,10.058 C5.754,9.838 5.892,9.612 6.028,9.38 L6.028,9.38 L6.028,15.524 L7.048,15.524 Z M7.972,15.5 C8.548,14.948 9.036,14.344 9.436,13.688 C9.836,13.032 10.148,12.4 10.372,11.792 C10.556,11.288 10.706,10.732 10.822,10.124 C10.938,9.516 11.02,8.84 11.068,8.096 L11.068,8.096 L15.268,8.096 L15.268,7.088 L11.104,7.088 C11.112,6.544 11.12,6.044 11.128,5.588 C11.136,5.132 11.148,4.712 11.164,4.328 L11.164,4.328 L10.108,4.328 L10.06,7.016 C10.06,7.032 10.058,7.044 10.054,7.052 C10.05,7.06 10.048,7.072 10.048,7.088 L10.048,7.088 L7.72,7.088 L7.72,8.096 L10,8.096 C9.896,9.416 9.684,10.52 9.364,11.408 C9.172,11.96 8.89,12.534 8.518,13.13 C8.146,13.726 7.684,14.292 7.132,14.828 L7.132,14.828 L7.972,15.5 Z M13.828,6.992 L14.5,6.248 C14.396,6.136 14.272,6.008 14.128,5.864 C13.984,5.72 13.816,5.56 13.624,5.384 C13.24,5.024 12.928,4.748 12.688,4.556 L12.688,4.556 L12.064,5.228 C12.288,5.412 12.592,5.692 12.976,6.068 C13.16,6.252 13.324,6.42 13.468,6.572 C13.612,6.724 13.732,6.864 13.828,6.992 L13.828,6.992 Z M13.039,15.185 L13.246,15.182 C13.386,15.178 13.524,15.174 13.66,15.17 C13.796,15.166 13.912,15.156 14.008,15.14 C14.224,15.116 14.406,15.08 14.554,15.032 C14.702,14.984 14.824,14.904 14.92,14.792 C15.016,14.68 15.092,14.53 15.148,14.342 C15.204,14.154 15.244,13.908 15.268,13.604 C15.284,13.396 15.296,13.188 15.304,12.98 C15.312,12.772 15.32,12.544 15.328,12.296 L15.328,12.296 L14.392,12.056 L14.344,13.22 C14.328,13.46 14.31,13.646 14.29,13.778 C14.27,13.91 14.232,14.008 14.176,14.072 C14.12,14.136 14.038,14.176 13.93,14.192 C13.822,14.208 13.672,14.216 13.48,14.216 C13.24,14.224 13.056,14.222 12.928,14.21 C12.8,14.198 12.704,14.164 12.64,14.108 C12.576,14.052 12.538,13.962 12.526,13.838 C12.514,13.714 12.508,13.54 12.508,13.316 L12.508,13.316 L12.508,8.516 L11.512,8.516 L11.512,13.592 C11.512,13.896 11.532,14.144 11.572,14.336 C11.612,14.528 11.674,14.682 11.758,14.798 C11.842,14.914 11.948,14.998 12.076,15.05 C12.204,15.102 12.352,15.136 12.52,15.152 C12.6,15.168 12.706,15.178 12.838,15.182 C12.97,15.186 13.106,15.186 13.246,15.182 L13.039,15.185 Z" id="优" fill="#FFFFFF" fill-rule="nonzero"></path>
            </g>
        </g>
    </g>
</svg>