<?xml version="1.0" encoding="UTF-8"?>
<svg width="20px" height="20px" viewBox="0 0 20 20" version="1.1" xmlns="http://www.w3.org/2000/svg" xmlns:xlink="http://www.w3.org/1999/xlink">
    <title>item_tag_zun</title>
    <defs>
        <linearGradient x1="99.5844488%" y1="49.5844488%" x2="0.415551246%" y2="49.5844488%" id="linearGradient-1">
            <stop stop-color="#FFC040" offset="0%"></stop>
            <stop stop-color="#FFCF6D" offset="100%"></stop>
        </linearGradient>
    </defs>
    <g id="商品列表" stroke="none" stroke-width="1" fill="none" fill-rule="evenodd">
        <g id="1.3-标签" transform="translate(-1356.000000, -80.000000)">
            <g id="item_tag_zun" transform="translate(1356.000000, 80.000000)">
                <path d="M8,0 L20,0 L20,0 L20,12 C20,16.418278 16.418278,20 12,20 L0,20 L0,20 L0,8 C-5.41083001e-16,3.581722 3.581722,8.11624501e-16 8,0 Z" id="矩形" fill="url(#linearGradient-1)"></path>
                <path d="M14.404,11.384 L14.404,6.776 L11.608,6.776 L11.608,5.96 L15.208,5.96 L15.208,5.18 L12.316,5.18 C12.324,5.18 12.328,5.176 12.328,5.168 C12.36,5.124 12.39025,5.08225 12.41875,5.04275 L12.56875,4.83275 L12.56875,4.83275 L12.628,4.748 C12.7,4.644 12.768,4.536 12.832,4.424 L12.832,4.424 L11.908,3.98 C11.836,4.108 11.766,4.228 11.698,4.34 C11.63,4.452 11.528,4.604 11.392,4.796 C11.336,4.868 11.286,4.936 11.242,5 C11.198,5.064 11.152,5.124 11.104,5.18 L11.104,5.18 L8.848,5.18 L8.584,4.712 C8.4,4.408 8.244,4.172 8.116,4.004 L8.116,4.004 L7.252,4.376 C7.308,4.464 7.372,4.566 7.444,4.682 C7.516,4.798 7.596,4.932 7.684,5.084 L7.684,5.084 L7.732,5.18 L4.828,5.18 L4.828,5.96 L8.284,5.96 L8.284,6.776 L5.632,6.776 L5.632,11.384 L14.404,11.384 Z M10.684,6.776 L9.208,6.776 L9.208,5.96 L10.684,5.96 L10.684,6.776 Z M13.468,9.38 L6.568,9.38 L6.568,7.496 L8.248,7.496 C8.2,7.72 8.12,7.888 8.008,8 C7.824,8.2 7.464,8.388 6.928,8.564 L6.928,8.564 L7.348,9.32 C7.684,9.2 7.974,9.066 8.218,8.918 C8.462,8.77 8.668,8.592 8.836,8.384 C9.036,8.152 9.152,7.856 9.184,7.496 L9.184,7.496 L10.684,7.496 L10.684,7.928 C10.684,8.112 10.698,8.268 10.726,8.396 C10.754,8.524 10.81,8.63 10.894,8.714 C10.978,8.798 11.096,8.862 11.248,8.906 C11.4,8.95 11.604,8.976 11.86,8.984 C12.436,9.008 12.972,9.008 13.468,8.984 L13.468,8.984 L13.468,9.38 Z M12.50725,8.263625 L12.328,8.264 C12.16,8.264 12.028,8.258 11.932,8.246 C11.836,8.234 11.764,8.206 11.716,8.162 C11.668,8.118 11.638,8.052 11.626,7.964 C11.614,7.876 11.608,7.752 11.608,7.592 L11.608,7.592 L11.608,7.496 L13.468,7.496 L13.468,8.24 C13.308,8.248 13.14,8.254 12.964,8.258 C12.788,8.262 12.576,8.264 12.328,8.264 L12.50725,8.263625 Z M13.468,10.652 L6.568,10.652 L6.568,10.076 L13.468,10.076 L13.468,10.652 Z M11.0466667,15.3453333 L11.302,15.338 C11.562,15.326 11.82,15.304 12.076,15.272 C12.508,15.232 12.81,15.124 12.982,14.948 C13.154,14.772 13.24,14.48 13.24,14.072 L13.24,14.072 L13.24,12.98 L15.484,12.98 L15.484,12.14 L13.24,12.14 L13.24,11.54 L12.316,11.54 L12.316,12.14 L4.516,12.14 L4.516,12.98 L6.988,12.98 L6.688,13.484 C6.832,13.548 6.996,13.634 7.18,13.742 C7.364,13.85 7.572,13.972 7.804,14.108 C8.036,14.244 8.24,14.376 8.416,14.504 C8.592,14.632 8.744,14.752 8.872,14.864 L8.872,14.864 L9.364,14.12 C9.092,13.912 8.72,13.668 8.248,13.388 C8.112,13.308 7.984,13.234 7.864,13.166 C7.744,13.098 7.628,13.036 7.516,12.98 L7.516,12.98 L12.316,12.98 L12.316,13.676 C12.316,13.836 12.31,13.96 12.298,14.048 C12.286,14.136 12.258,14.204 12.214,14.252 C12.17,14.3 12.104,14.33 12.016,14.342 C11.928,14.354 11.812,14.36 11.668,14.36 C11.476,14.368 11.266,14.37 11.038,14.366 C10.81,14.362 10.596,14.352 10.396,14.336 L10.396,14.336 L10.564,15.332 C10.796,15.348 11.042,15.35 11.302,15.338 L11.0466667,15.3453333 Z" id="尊" fill="#6A2D00" fill-rule="nonzero"></path>
            </g>
        </g>
    </g>
</svg>