<?xml version="1.0" encoding="UTF-8"?>
<svg width="20px" height="20px" viewBox="0 0 20 20" version="1.1" xmlns="http://www.w3.org/2000/svg" xmlns:xlink="http://www.w3.org/1999/xlink">
    <title>item_tag_shou</title>
    <defs>
        <linearGradient x1="97.9905349%" y1="50%" x2="0%" y2="50%" id="linearGradient-1">
            <stop stop-color="#8657FF" offset="0%"></stop>
            <stop stop-color="#A369FF" offset="100%"></stop>
        </linearGradient>
    </defs>
    <g id="商品列表" stroke="none" stroke-width="1" fill="none" fill-rule="evenodd">
        <g id="1.3-标签" transform="translate(-1386.000000, -80.000000)">
            <g id="item_tag_shou" transform="translate(1386.000000, 80.000000)">
                <path d="M8,0 L20,0 L20,0 L20,12 C20,16.418278 16.418278,20 12,20 L0,20 L0,20 L0,8 C-5.41083001e-16,3.581722 3.581722,8.11624501e-16 8,0 Z" id="矩形" fill="url(#linearGradient-1)"></path>
                <path d="M5.056,15.404 C5.184,15.404 5.334,15.4 5.506,15.392 C5.678,15.384 5.84,15.372 5.992,15.356 C6.216,15.332 6.4,15.292 6.544,15.236 C6.688,15.18 6.798,15.104 6.874,15.008 C6.95,14.912 7.002,14.79 7.03,14.642 C7.058,14.494 7.072,14.312 7.072,14.096 L7.072,14.096 L7.072,10.448 C7.256,10.376 7.436,10.304 7.612,10.232 C7.788,10.16 7.956,10.088 8.116,10.016 L8.116,10.016 L7.9,9.056 C7.772,9.12 7.638,9.182 7.498,9.242 C7.358,9.302 7.216,9.36 7.072,9.416 L7.072,9.416 L7.072,7.52 L8.236,7.52 L8.236,6.572 L7.072,6.572 L7.072,4.412 L6.112,4.412 L6.112,6.572 L4.756,6.572 L4.756,7.52 L6.112,7.52 L6.112,9.776 C5.824,9.872 5.536,9.964 5.248,10.052 C4.96,10.14 4.688,10.216 4.432,10.28 L4.432,10.28 L4.636,11.276 C4.868,11.212 5.108,11.14 5.356,11.06 C5.604,10.98 5.856,10.896 6.112,10.808 L6.112,10.808 L6.112,13.784 C6.112,13.92 6.106,14.028 6.094,14.108 C6.082,14.188 6.056,14.248 6.016,14.288 C5.976,14.328 5.918,14.354 5.842,14.366 C5.766,14.378 5.664,14.384 5.536,14.384 C5.416,14.392 5.296,14.392 5.176,14.384 C5.056,14.376 4.948,14.364 4.852,14.348 L4.852,14.348 L5.056,15.404 Z M9.148,9.896 L9.148,8.9 L14.212,8.9 L14.212,9.896 L15.16,9.896 L15.16,8 L13.732,8 C13.892,7.736 14.05,7.446 14.206,7.13 C14.362,6.814 14.52,6.468 14.68,6.092 L14.68,6.092 L13.828,5.792 C13.66,6.216 13.492,6.598 13.324,6.938 C13.156,7.278 12.964,7.632 12.748,8 L12.748,8 L9.904,8 L10.432,7.796 C10.392,7.684 10.342,7.554 10.282,7.406 C10.222,7.258 10.148,7.092 10.06,6.908 C9.972,6.732 9.894,6.574 9.826,6.434 C9.758,6.294 9.692,6.176 9.628,6.08 C10.548,6.024 11.466,5.954 12.382,5.87 C13.298,5.786 14.18,5.684 15.028,5.564 L15.028,5.564 L14.764,4.616 C14.188,4.712 13.65,4.792 13.15,4.856 C12.65,4.92 12.158,4.974 11.674,5.018 C11.19,5.062 10.692,5.098 10.18,5.126 C9.668,5.154 9.108,5.172 8.5,5.18 L8.5,5.18 L8.62,6.128 C8.78,6.12 8.94,6.114 9.1,6.11 C9.26,6.106 9.42,6.096 9.58,6.08 L9.58,6.08 L8.896,6.368 C8.96,6.472 9.026,6.594 9.094,6.734 C9.162,6.874 9.24,7.036 9.328,7.22 C9.4,7.388 9.462,7.534 9.514,7.658 C9.566,7.782 9.612,7.896 9.652,8 L9.652,8 L8.212,8 L8.212,9.896 L9.148,9.896 Z M11.644,7.94 L12.436,7.688 C12.404,7.584 12.362,7.462 12.31,7.322 C12.258,7.182 12.192,7.02 12.112,6.836 C12.04,6.652 11.972,6.488 11.908,6.344 C11.844,6.2 11.784,6.076 11.728,5.972 L11.728,5.972 L10.984,6.236 C11.032,6.34 11.086,6.462 11.146,6.602 C11.206,6.742 11.272,6.904 11.344,7.088 C11.416,7.272 11.476,7.434 11.524,7.574 C11.572,7.714 11.612,7.836 11.644,7.94 L11.644,7.94 Z M7.984,15.548 C9.512,15.068 10.72,14.54 11.608,13.964 C12.064,14.268 12.584,14.546 13.168,14.798 C13.752,15.05 14.408,15.272 15.136,15.464 L15.136,15.464 L15.508,14.492 C14.244,14.228 13.208,13.852 12.4,13.364 C13.12,12.732 13.748,11.932 14.284,10.964 L14.284,10.964 L14.284,10.04 L8.86,10.04 L8.86,10.952 L9.172,10.952 C9.412,11.424 9.672,11.86 9.952,12.26 C10.232,12.66 10.532,13.02 10.852,13.34 C10.452,13.572 9.976,13.79 9.424,13.994 C8.872,14.198 8.252,14.396 7.564,14.588 L7.564,14.588 L7.984,15.548 Z M11.62,12.8 C11.044,12.304 10.552,11.688 10.144,10.952 L10.144,10.952 L13.168,10.952 C12.752,11.68 12.236,12.296 11.62,12.8 Z" id="授" fill="#FFFFFF" fill-rule="nonzero"></path>
            </g>
        </g>
    </g>
</svg>