<?xml version="1.0" encoding="UTF-8"?>
<svg width="20px" height="20px" viewBox="0 0 20 20" version="1.1" xmlns="http://www.w3.org/2000/svg" xmlns:xlink="http://www.w3.org/1999/xlink">
    <title>item_tag_xin</title>
    <defs>
        <linearGradient x1="100%" y1="50%" x2="2.13110864%" y2="50%" id="linearGradient-1">
            <stop stop-color="#02BDC4" offset="0%"></stop>
            <stop stop-color="#14D2D2" offset="100%"></stop>
            <stop stop-color="#10CBCB" offset="100%"></stop>
        </linearGradient>
    </defs>
    <g id="商品列表" stroke="none" stroke-width="1" fill="none" fill-rule="evenodd">
        <g id="1.3-标签" transform="translate(-1266.000000, -80.000000)">
            <g id="item_tag_xin" transform="translate(1266.000000, 80.000000)">
                <path d="M8,0 L20,0 L20,0 L20,12 C20,16.418278 16.418278,20 12,20 L0,20 L0,20 L0,8 C-5.41083001e-16,3.581722 3.581722,8.11624501e-16 8,0 Z" id="矩形" fill="url(#linearGradient-1)"></path>
                <path d="M10.18,6.368 L10.18,5.48 L8.104,5.48 C8.04,5.256 7.97,5.022 7.894,4.778 C7.818,4.534 7.748,4.332 7.684,4.172 L7.684,4.172 L6.76,4.376 C6.824,4.544 6.884,4.722 6.94,4.91 C6.996,5.098 7.052,5.288 7.108,5.48 L7.108,5.48 L4.876,5.48 L4.876,6.368 L10.18,6.368 Z M10.228,15.74 C10.54,15.26 10.802,14.796 11.014,14.348 C11.226,13.9 11.376,13.46 11.464,13.028 C11.648,12.172 11.744,10.968 11.752,9.416 L11.752,9.416 L11.752,9.332 L13.216,9.332 L13.216,15.476 L14.188,15.476 L14.188,9.332 L15.484,9.332 L15.484,8.372 L11.752,8.372 L11.752,6.356 C12.328,6.284 12.932,6.176 13.564,6.032 C14.196,5.888 14.736,5.732 15.184,5.564 L15.184,5.564 L14.848,4.592 C14.584,4.696 14.294,4.79 13.978,4.874 C13.662,4.958 13.32,5.04 12.952,5.12 C12.216,5.28 11.496,5.388 10.792,5.444 L10.792,5.444 L10.792,9.212 C10.792,10.732 10.7,11.904 10.516,12.728 C10.332,13.536 9.932,14.368 9.316,15.224 L9.316,15.224 L10.228,15.74 Z M6.028,15.404 C6.18,15.404 6.342,15.4 6.514,15.392 C6.686,15.384 6.844,15.368 6.988,15.344 C7.196,15.312 7.364,15.264 7.492,15.2 C7.62,15.136 7.72,15.052 7.792,14.948 C7.864,14.844 7.914,14.716 7.942,14.564 C7.97,14.412 7.984,14.232 7.984,14.024 L7.984,14.024 L7.984,11.372 L10.264,11.372 L10.264,10.448 L7.984,10.448 L7.984,9.128 L10.42,9.128 L10.42,8.24 L8.776,8.24 L9.016,7.724 C9.064,7.62 9.104,7.53 9.136,7.454 C9.168,7.378 9.2,7.304 9.232,7.232 C9.264,7.16 9.296,7.084 9.328,7.004 C9.36,6.924 9.4,6.824 9.448,6.704 L9.448,6.704 L8.572,6.44 C8.524,6.584 8.472,6.732 8.416,6.884 C8.36,7.036 8.28,7.228 8.176,7.46 C8.104,7.62 8.04,7.764 7.984,7.892 C7.928,8.02 7.868,8.136 7.804,8.24 L7.804,8.24 L6.508,8.24 L7.048,8.012 C6.936,7.74 6.812,7.466 6.676,7.19 C6.54,6.914 6.408,6.668 6.28,6.452 L6.28,6.452 L5.548,6.8 C5.596,6.896 5.652,7.004 5.716,7.124 C5.78,7.244 5.844,7.37 5.908,7.502 C5.972,7.634 6.034,7.764 6.094,7.892 C6.154,8.02 6.208,8.136 6.256,8.24 L6.256,8.24 L4.552,8.24 L4.552,9.128 L7.012,9.128 L7.012,10.448 L4.696,10.448 L4.696,11.372 L7.012,11.372 L7.012,13.808 C7.012,13.936 7.008,14.038 7,14.114 C6.992,14.19 6.972,14.246 6.94,14.282 C6.908,14.318 6.86,14.342 6.796,14.354 C6.732,14.366 6.644,14.372 6.532,14.372 L6.532,14.372 L6.226,14.372 C6.102,14.372 5.96,14.364 5.8,14.348 L5.8,14.348 L6.028,15.404 Z M5.044,14.852 C5.364,14.412 5.654,13.948 5.914,13.46 C6.174,12.972 6.392,12.472 6.568,11.96 L6.568,11.96 L5.728,11.636 C5.56,12.116 5.354,12.592 5.11,13.064 C4.866,13.536 4.592,13.968 4.288,14.36 L4.288,14.36 L5.044,14.852 Z M9.46,13.988 L10.18,13.436 C10.012,13.148 9.818,12.846 9.598,12.53 C9.378,12.214 9.168,11.928 8.968,11.672 L8.968,11.672 L8.296,12.164 C8.456,12.372 8.664,12.676 8.92,13.076 C9.048,13.276 9.154,13.446 9.238,13.586 C9.322,13.726 9.396,13.86 9.46,13.988 L9.46,13.988 Z" id="新" fill="#FFFFFF" fill-rule="nonzero"></path>
            </g>
        </g>
    </g>
</svg>