<?xml version="1.0" encoding="UTF-8"?>
<svg width="20px" height="20px" viewBox="0 0 20 20" version="1.1" xmlns="http://www.w3.org/2000/svg" xmlns:xlink="http://www.w3.org/1999/xlink">
    <title>item_tag_cu</title>
    <defs>
        <linearGradient x1="0.575635259%" y1="50.1283287%" x2="99.4243647%" y2="50.1283287%" id="linearGradient-1">
            <stop stop-color="#FF9033" offset="0%"></stop>
            <stop stop-color="#FF7F48" offset="100%"></stop>
        </linearGradient>
    </defs>
    <g id="商品列表" stroke="none" stroke-width="1" fill="none" fill-rule="evenodd">
        <g id="1.3-标签" transform="translate(-1296.000000, -80.000000)">
            <g id="item_tag_cu" transform="translate(1296.000000, 80.000000)">
                <path d="M8,0 L20,0 L20,0 L20,12 C20,16.418278 16.418278,20 12,20 L0,20 L0,20 L0,8 C-5.41083001e-16,3.581722 3.581722,8.11624501e-16 8,0 Z" id="矩形" fill="url(#linearGradient-1)"></path>
                <path d="M6.94,15.536 L6.94,7.304 C7.108,6.896 7.268,6.474 7.42,6.038 C7.572,5.602 7.724,5.144 7.876,4.664 L7.876,4.664 L6.868,4.364 C6.58,5.404 6.212,6.406 5.764,7.37 C5.316,8.334 4.828,9.224 4.3,10.04 L4.3,10.04 L5.176,10.64 C5.448,10.224 5.696,9.82 5.92,9.428 L5.92,9.428 L5.92,15.536 L6.94,15.536 Z M7.792,15.596 C8.096,15.228 8.374,14.828 8.626,14.396 C8.878,13.964 9.08,13.532 9.232,13.1 C9.616,13.772 10.11,14.274 10.714,14.606 C11.318,14.938 12.076,15.124 12.988,15.164 C13.38,15.18 13.796,15.186 14.236,15.182 C14.676,15.178 15.076,15.156 15.436,15.116 L15.436,15.116 L15.556,14.048 C15.22,14.088 14.83,14.118 14.386,14.138 C13.942,14.158 13.476,14.16 12.988,14.144 C12.868,14.136 12.752,14.128 12.64,14.12 C12.528,14.112 12.42,14.1 12.316,14.084 L12.316,14.084 L12.316,11.924 L15.16,11.924 L15.16,10.904 L12.316,10.904 L12.316,8.996 L14.656,8.996 L14.656,4.916 L8.548,4.916 L8.548,8.996 L11.296,8.996 L11.296,13.784 C10.92,13.6 10.594,13.34 10.318,13.004 C10.042,12.668 9.8,12.24 9.592,11.72 C9.64,11.432 9.682,11.134 9.718,10.826 C9.754,10.518 9.788,10.196 9.82,9.86 L9.82,9.86 L8.776,9.788 C8.72,10.98 8.556,11.96 8.284,12.728 C8.148,13.112 7.978,13.486 7.774,13.85 C7.57,14.214 7.308,14.592 6.988,14.984 L6.988,14.984 L7.792,15.596 Z M13.624,8 L9.58,8 L9.58,5.912 L13.624,5.912 L13.624,8 Z" id="促" fill="#FFFFFF" fill-rule="nonzero"></path>
            </g>
        </g>
    </g>
</svg>